# xmcd
#
# Track frame offsets: 
#        150
#        18017
#        33618
#        53847
#        80874
#        102395
#        118656
#        130878
#        150665
#        164245
#        181488
#        198440
#        232608
#
# Disc length: 3165 seconds
#
# Revision: 0
# Processed by: cddbd v1.5.2PL0 Copyright (c) Steve Scherf et al.
# Submitted via: ExactAudioCopy v0.95b4
#
DISCID=ab0c5b0d
DTITLE=Robert Earl Keen - Farm Fresh Onions
DYEAR=2003
DGENRE=Country
TTITLE0=Furnace Fan
TTITLE1=All I Have is Today
TTITLE2=Out There in the Middle
TTITLE3=Train Trek
TTITLE4=Farm Fresh Onions
TTITLE5=Floppy Shoes
TTITLE6=Gone On
TTITLE7=So Sorry Blues
TTITLE8=Beats the Devil
TTITLE9=These Years
TTITLE10=Famous Words
TTITLE11=Let the Music Play
TTITLE12=Farm Fresh Extras
EXTD=
EXTT0=
EXTT1=
EXTT2=
EXTT3=
EXTT4=
EXTT5=
EXTT6=
EXTT7=
EXTT8=
EXTT9=
EXTT10=
EXTT11=
EXTT12=
PLAYORDER=
